<svg width="46" height="39" viewBox="0 0 46 39" fill="none" xmlns="http://www.w3.org/2000/svg">
<path d="M10.64 13.3534C11.336 14.7446 11.4741 16.3519 11.0256 17.8427C10.5771 19.3335 9.57642 20.5937 8.23054 21.3627C5.67264 22.2685 2.60317 20.1422 1.37791 16.6207C0.680672 15.2295 0.541627 13.6218 0.989554 12.1303C1.43748 10.6388 2.43808 9.37782 3.78422 8.60827C6.34212 7.70247 9.41159 9.83191 10.64 13.3534ZM31.2326 38.3918C30.1164 38.3934 29.0109 38.1729 27.9796 37.7431C26.9483 37.3133 26.0116 36.6826 25.2232 35.8873C24.6334 35.2942 23.8338 34.9611 23 34.9611C22.1663 34.9611 21.3666 35.2942 20.7769 35.8873C19.1795 37.4766 17.0221 38.3651 14.7759 38.3586C12.5298 38.3521 10.3775 37.4512 8.78921 35.8527C7.20094 34.2542 6.3058 32.088 6.29934 29.8273C6.29288 27.5667 7.17564 25.3954 8.75475 23.7877C10.6249 21.9039 12.8456 20.4096 15.2899 19.39C17.7342 18.3705 20.3541 17.8457 23 17.8457C25.6459 17.8457 28.2658 18.3705 30.7101 19.39C33.1544 20.4096 35.3751 21.9039 37.2453 23.7877C38.4337 24.9844 39.2429 26.5089 39.5705 28.1685C39.8981 29.828 39.7295 31.548 39.086 33.1111C38.4424 34.6742 37.3529 36.0102 35.955 36.9501C34.5571 37.8901 32.9138 38.3918 31.2326 38.3918ZM22.1474 7.49588C22.5484 11.7452 20.3695 15.4288 17.2842 15.7212C14.199 16.0136 11.3726 12.8068 10.9747 8.55742C10.5737 4.31126 12.7526 0.627643 15.8379 0.335243C18.9232 0.0396637 21.7463 3.24654 22.1474 7.49588ZM23.8526 7.49588C23.4516 11.7452 25.6305 15.4288 28.7158 15.7212C31.8011 16.0136 34.6242 12.8068 35.0253 8.55742C35.4263 4.31126 33.2474 0.627643 30.1621 0.335243C27.0769 0.0396637 24.2505 3.24654 23.8526 7.49588ZM35.36 13.3503C34.6621 14.7421 34.523 16.3509 34.9716 17.8432C35.4201 19.3354 36.422 20.5968 37.7695 21.3658C40.3274 22.2685 43.3969 20.1422 44.6221 16.6207C45.3194 15.2295 45.4584 13.6218 45.0105 12.1303C44.5625 10.6388 43.5619 9.37782 42.2158 8.60827C39.6579 7.70247 36.5884 9.82873 35.36 13.3503Z" fill="#621887"/>
</svg>
