<svg width="32" height="32" viewBox="0 0 33 31" fill="none" xmlns="http://www.w3.org/2000/svg">
<path d="M20.8996 26.529V25.271H25.3983C25.6063 25.271 25.797 25.1903 25.9704 25.029C26.1437 24.8677 26.2304 24.6903 26.2304 24.4968V13.4645H7.29936V18.3516H5.94714V8.43224C5.94714 7.85322 6.1556 7.36975 6.57254 6.98185C6.98947 6.59395 7.50912 6.4 8.13148 6.4H10.5239V3.59354H11.9801V6.4H21.6537V3.59354H23.0059V6.4H25.3983C26.0207 6.4 26.5403 6.59395 26.9572 6.98185C27.3742 7.36975 27.5826 7.85322 27.5826 8.43224V24.4968C27.5826 25.0758 27.3742 25.5593 26.9572 25.9472C26.5403 26.3351 26.0207 26.529 25.3983 26.529H20.8996ZM11.356 29.4081L10.425 28.5419L14.5571 24.6419H2.56659V23.3839H14.5571L10.425 19.4839L11.356 18.6177L17.155 24.0129L11.356 29.4081ZM7.29936 12.2064H26.2304V8.43224C26.2304 8.23871 26.1437 8.06129 25.9704 7.89999C25.797 7.7387 25.6063 7.65806 25.3983 7.65806H8.13148C7.92346 7.65806 7.73276 7.7387 7.55939 7.89999C7.38603 8.06129 7.29936 8.23871 7.29936 8.43224V12.2064Z" fill="#1C0229"/>
</svg>
