<svg width="32" height="32" viewBox="0 0 31 31" fill="none" xmlns="http://www.w3.org/2000/svg">
<g clip-path="url(#clip0_1_111)">
<path d="M23.938 10.0365L20.4457 5.03028C20.1869 4.66001 19.8429 4.35628 19.4422 4.14427C19.0415 3.93226 18.5956 3.81807 18.1416 3.81115L11.5142 3.7168H11.5006C8.07902 3.7168 5.4538 4.28475 3.76302 7.0566C2.18888 9.63674 1.5174 14.0318 1.5174 21.7524V22.696H3.68975L2.29133 29.7726H4.22914L5.62755 22.696H6.27129C7.82413 22.7097 9.32012 22.1168 10.4362 21.0452C11.4451 20.0872 12.1729 18.7765 12.5409 17.2549L12.5442 17.2412L14.175 9.4863H12.2324L10.6887 16.8276C10.2185 18.7548 8.8126 20.8089 6.27129 20.8089H3.42252C3.47416 14.1294 4.08699 10.1693 5.38974 8.03359C6.48314 6.24085 8.08134 5.60448 11.494 5.6036L18.1143 5.69795C18.2656 5.70024 18.4142 5.7383 18.5478 5.80897C18.6814 5.87964 18.796 5.98089 18.8823 6.10433L22.8327 11.7667L28.1392 12.6445V13.6446L27.2543 18.3282C26.9931 19.7105 26.5467 20.4069 24.7158 20.6251L17.2102 21.8994L17.1606 29.7726H19.0622L19.1018 23.4925L24.9669 22.4959C26.2956 22.3338 27.276 21.9088 27.9634 21.1972C28.5511 20.5887 28.9088 19.8113 29.1233 18.676L30.0408 13.82V11.0459L23.938 10.0365Z" fill="#1C0229"/>
</g>
<defs>
<clipPath id="clip0_1_111">
<rect width="30.4249" height="30.1935" fill="white" transform="translate(0.566589 0.522583)"/>
</clipPath>
</defs>
</svg>
