<svg width="32" height="32" viewBox="0 0 38 37" fill="none" xmlns="http://www.w3.org/2000/svg">
<path d="M4.47345 28.471V25.9858C4.47345 25.2851 4.65629 24.6827 5.02197 24.1785C5.38766 23.6743 5.87908 23.2714 6.49625 22.9697C7.81575 22.3462 9.12593 21.8492 10.4268 21.4785C11.7276 21.1079 13.2928 20.9226 15.1222 20.9226C16.9516 20.9226 18.5167 21.1079 19.8176 21.4785C21.1184 21.8492 22.4286 22.3462 23.7481 22.9697C24.3653 23.2714 24.8567 23.6743 25.2224 24.1785C25.5881 24.6827 25.7709 25.2851 25.7709 25.9858V28.471H4.47345ZM28.8134 28.471V25.9161C28.8134 25.0413 28.635 24.2155 28.2781 23.4387C27.9213 22.662 27.4151 21.9955 26.7597 21.4393C27.5067 21.5903 28.2264 21.7998 28.9187 22.0679C29.6111 22.3359 30.2956 22.6374 30.9724 22.9722C31.6316 23.3013 32.1485 23.7223 32.5229 24.2354C32.8974 24.7485 33.0846 25.3088 33.0846 25.9161V28.471H28.8134ZM15.1222 17.5548C13.8671 17.5548 12.7928 17.1114 11.899 16.2244C11.0053 15.3375 10.5584 14.2713 10.5584 13.0258C10.5584 11.7803 11.0053 10.7141 11.899 9.82714C12.7928 8.9402 13.8671 8.49673 15.1222 8.49673C16.3772 8.49673 17.4516 8.9402 18.3453 9.82714C19.239 10.7141 19.6859 11.7803 19.6859 13.0258C19.6859 14.2713 19.239 15.3375 18.3453 16.2244C17.4516 17.1114 16.3772 17.5548 15.1222 17.5548ZM26.1805 13.0258C26.1805 14.2713 25.7336 15.3375 24.8399 16.2244C23.9462 17.1114 22.8718 17.5548 21.6168 17.5548C21.5524 17.5548 21.4705 17.5476 21.371 17.5331C21.2715 17.5185 21.1896 17.5026 21.1252 17.4852C21.6406 16.8588 22.0366 16.1639 22.3133 15.4005C22.59 14.6371 22.7284 13.8443 22.7284 13.0222C22.7284 12.2001 22.5836 11.4145 22.294 10.6655C22.0044 9.91644 21.6148 9.21675 21.1252 8.56641C21.2072 8.5374 21.2891 8.51852 21.371 8.50979C21.4529 8.50109 21.5348 8.49673 21.6168 8.49673C22.8718 8.49673 23.9462 8.9402 24.8399 9.82714C25.7336 10.7141 26.1805 11.7803 26.1805 13.0258ZM5.9947 26.9613H24.2497V25.9858C24.2497 25.6316 24.1604 25.3219 23.982 25.0568C23.8035 24.7916 23.4832 24.538 23.0209 24.2961C21.8859 23.6942 20.6894 23.2331 19.4314 22.9127C18.1734 22.5924 16.737 22.4322 15.1222 22.4322C13.5073 22.4322 12.0709 22.5924 10.8129 22.9127C9.555 23.2331 8.35849 23.6942 7.22341 24.2961C6.76118 24.538 6.44083 24.7916 6.26236 25.0568C6.08392 25.3219 5.9947 25.6316 5.9947 25.9858V26.9613ZM15.1222 16.0452C15.9589 16.0452 16.6751 15.7495 17.2709 15.1582C17.8668 14.5669 18.1647 13.8561 18.1647 13.0258C18.1647 12.1955 17.8668 11.4847 17.2709 10.8934C16.6751 10.3021 15.9589 10.0065 15.1222 10.0065C14.2855 10.0065 13.5692 10.3021 12.9734 10.8934C12.3776 11.4847 12.0797 12.1955 12.0797 13.0258C12.0797 13.8561 12.3776 14.5669 12.9734 15.1582C13.5692 15.7495 14.2855 16.0452 15.1222 16.0452Z" fill="#1C0229"/>
</svg>
