<svg width="32" height="32" viewBox="0 0 37 37" fill="none" xmlns="http://www.w3.org/2000/svg">
<path d="M18.255 17.1871C17 17.1871 15.9256 16.7437 15.0318 15.8567C14.1381 14.9698 13.6912 13.9036 13.6912 12.6581C13.6912 11.4126 14.1381 10.3464 15.0318 9.45943C15.9256 8.5725 17 8.12903 18.255 8.12903C19.51 8.12903 20.5844 8.5725 21.4781 9.45943C22.3719 10.3464 22.8187 11.4126 22.8187 12.6581C22.8187 13.9036 22.3719 14.9698 21.4781 15.8567C20.5844 16.7437 19.51 17.1871 18.255 17.1871ZM7.60626 28.1033V25.6181C7.60626 24.9949 7.7891 24.4118 8.15479 23.8689C8.52047 23.326 9.01244 22.9045 9.6307 22.6045C11.0661 21.9213 12.5025 21.4089 13.9399 21.0673C15.3773 20.7257 16.8157 20.5548 18.255 20.5548C19.6943 20.5548 21.1327 20.7257 22.5701 21.0673C24.0075 21.4089 25.4439 21.9213 26.8793 22.6045C27.4975 22.9045 27.9895 23.326 28.3552 23.8689C28.7209 24.4118 28.9037 24.9949 28.9037 25.6181V28.1033H7.60626ZM9.12751 26.5936H27.3825V25.6181C27.3825 25.2833 27.2737 24.9687 27.0563 24.6745C26.8388 24.3803 26.538 24.1316 26.1538 23.9284C24.9017 23.3265 23.6107 22.8653 22.2808 22.545C20.951 22.2247 19.609 22.0645 18.255 22.0645C16.901 22.0645 15.559 22.2247 14.2292 22.545C12.8993 22.8653 11.6083 23.3265 10.3562 23.9284C9.972 24.1316 9.67116 24.3803 9.4537 24.6745C9.23624 24.9687 9.12751 25.2833 9.12751 25.6181V26.5936ZM18.255 15.6775C19.0917 15.6775 19.8079 15.3818 20.4037 14.7905C20.9996 14.1992 21.2975 13.4884 21.2975 12.6581C21.2975 11.8278 20.9996 11.117 20.4037 10.5257C19.8079 9.93439 19.0917 9.63874 18.255 9.63874C17.4183 9.63874 16.702 9.93439 16.1062 10.5257C15.5104 11.117 15.2125 11.8278 15.2125 12.6581C15.2125 13.4884 15.5104 14.1992 16.1062 14.7905C16.702 15.3818 17.4183 15.6775 18.255 15.6775Z" fill="#1C0229"/>
</svg>
